<?xml version="1.0" standalone="no"?>
<!DOCTYPE svg PUBLIC "-//W3C//DTD SVG 20010904//EN"
 "http://www.w3.org/TR/2001/REC-SVG-20010904/DTD/svg10.dtd">
<svg version="1.0" xmlns="http://www.w3.org/2000/svg"
 width="150.000000pt" height="150.000000pt" viewBox="0 0 150.000000 150.000000"
 preserveAspectRatio="xMidYMid meet">

<g transform="translate(0.000000,150.000000) scale(0.100000,-0.100000)"
fill="#000000" stroke="none">
<path d="M623 1490 c-291 -53 -532 -280 -604 -570 -18 -71 -18 -269 0 -340 63
-255 248 -455 501 -541 89 -31 104 -33 230 -33 126 0 141 2 230 33 252 86 438
287 501 541 18 71 18 269 0 340 -82 329 -367 564 -700 575 -58 2 -129 0 -158
-5z m-268 -331 c9 -17 15 -32 13 -34 -9 -7 -48 -25 -56 -25 -5 0 -14 12 -21
27 -11 24 -10 29 9 45 30 24 37 23 55 -13z m75 -45 c0 -8 -2 -14 -4 -14 -2 0
-11 -3 -19 -6 -19 -7 -31 24 -16 42 13 16 39 1 39 -22z m-20 -55 c13 -23 13
-22 -17 -38 -19 -10 -24 -8 -34 11 -10 18 -8 24 7 35 24 18 31 17 44 -8z m312
-51 l2 -53 3 53 c4 48 6 52 29 52 22 0 24 -4 24 -50 0 -46 3 -51 27 -61 39
-14 43 -25 43 -107 l0 -73 -47 3 -48 3 -3 58 c-3 52 -5 57 -26 57 -13 0 -26
-6 -28 -12 -2 -7 -2 -100 0 -205 l4 -193 24 0 c22 0 23 3 26 83 l3 82 48 3 47
3 0 -93 c0 -101 -14 -138 -51 -138 -16 0 -19 -7 -19 -55 0 -52 -1 -55 -25 -55
-23 0 -25 4 -27 53 l-2 52 -3 -53 c-4 -48 -6 -52 -29 -52 -22 0 -24 4 -24 50
0 46 -3 51 -27 61 -15 6 -31 16 -35 22 -10 16 -10 468 0 484 4 6 20 16 35 22
24 10 27 15 27 61 0 47 2 50 25 50 23 0 25 -4 27 -52z m-267 12 c-5 -8 -11 -8
-17 -2 -6 6 -7 16 -3 22 5 8 11 8 17 2 6 -6 7 -16 3 -22z m85 -336 l0 -275
-47 3 -48 3 -3 260 c-1 143 0 265 3 272 2 8 22 13 50 13 l45 0 0 -276z m468
169 c2 -83 6 -103 17 -103 12 0 15 20 15 106 l0 105 48 -3 47 -3 0 -270 0
-270 -47 -3 -48 -3 0 135 c0 113 -2 136 -15 136 -12 0 -15 -24 -17 -132 l-3
-133 -47 -3 -48 -3 0 276 0 276 48 -3 47 -3 3 -102z"/>
</g>
</svg>
